<svg width="17" height="17" viewBox="0 0 17 17" fill="none" xmlns="http://www.w3.org/2000/svg">
<path d="M4.91225 16.6458C4.49853 16.6458 4.14583 16.4985 3.85417 16.2039C3.5625 15.9093 3.41667 15.5551 3.41667 15.1414C3.41667 14.7277 3.56397 14.375 3.85858 14.0833C4.15321 13.7917 4.50738 13.6458 4.92108 13.6458C5.33481 13.6458 5.6875 13.7931 5.97917 14.0878C6.27083 14.3824 6.41667 14.7365 6.41667 15.1503C6.41667 15.564 6.26936 15.9167 5.97475 16.2083C5.68013 16.5 5.32596 16.6458 4.91225 16.6458ZM13.2456 16.6458C12.8319 16.6458 12.4792 16.4985 12.1875 16.2039C11.8958 15.9093 11.75 15.5551 11.75 15.1414C11.75 14.7277 11.8973 14.375 12.1919 14.0833C12.4865 13.7917 12.8407 13.6458 13.2544 13.6458C13.6681 13.6458 14.0208 13.7931 14.3125 14.0878C14.6042 14.3824 14.75 14.7365 14.75 15.1503C14.75 15.564 14.6027 15.9167 14.3081 16.2083C14.0135 16.5 13.6593 16.6458 13.2456 16.6458ZM3.83333 2.89583L6.125 7.64583H12.125L14.7292 2.89583H3.83333ZM3.20833 1.64583H15.4807C15.7997 1.64583 16.0423 1.79167 16.2087 2.08333C16.3751 2.375 16.375 2.66667 16.2083 2.95833L13.3958 8.02083C13.2431 8.28472 13.0447 8.49653 12.8009 8.65625C12.557 8.81597 12.29 8.89583 12 8.89583H5.6875L4.52083 11.0625H14.75V12.3125H4.70833C4.125 12.3125 3.70486 12.1181 3.44792 11.7292C3.19097 11.3403 3.19444 10.9028 3.45833 10.4167L4.79167 7.95833L1.625 1.25H0V0H2.4375L3.20833 1.64583Z" fill="white"/>
</svg>
